<?xml version="1.0" encoding="UTF-8" standalone="no"?>
<svg
   xmlns:dc="http://purl.org/dc/elements/1.1/"
   xmlns:cc="http://creativecommons.org/ns#"
   xmlns:rdf="http://www.w3.org/1999/02/22-rdf-syntax-ns#"
   xmlns:svg="http://www.w3.org/2000/svg"
   xmlns="http://www.w3.org/2000/svg"
   xmlns:xlink="http://www.w3.org/1999/xlink"
   viewBox="0 0 300 292.71301"
   height="292.71301"
   width="300"
   xml:space="preserve"
   version="1.1"
   id="svg2"><defs
     id="defs6"><clipPath
       clipPathUnits="userSpaceOnUse"
       id="clipPath572"><path
         d="m 507.91,391.2 c 0,-22.428 -18.202,-40.63 -40.63,-40.63 -22.428,0 -40.63,18.202 -40.63,40.63 0,22.428 18.202,40.63 40.63,40.63 22.428,0 40.63,-18.202 40.63,-40.63"
         id="path574"
         style="clip-rule:evenodd" /></clipPath><clipPath
       clipPathUnits="userSpaceOnUse"
       id="clipPathAW"
       clip-path="url(#clipPathz)"><use
         height="100%"
         width="100%"
         y="0"
         x="0"
         xlink:href="#path574"
         id="use5a" /></clipPath><clipPath
       clipPathUnits="userSpaceOnUse"
       id="clipPathm"
       clip-path="url(#clipPathM)"><use
         height="100%"
         width="100%"
         y="0"
         x="0"
         xlink:href="#path574"
         id="usebu" /></clipPath><clipPath
       clipPathUnits="userSpaceOnUse"
       id="clipPathn"
       clip-path="url(#clipPathUM)"><use
         height="100%"
         width="100%"
         y="0"
         x="0"
         xlink:href="#path574"
         id="usef7" /></clipPath><clipPath
       clipPathUnits="userSpaceOnUse"
       id="clipPath5N"
       clip-path="url(#clipPatho9)"><use
         height="100%"
         width="100%"
         y="0"
         x="0"
         xlink:href="#path574"
         id="useOF" /></clipPath><clipPath
       clipPathUnits="userSpaceOnUse"
       id="clipPathjW"
       clip-path="url(#clipPath8e)"><use
         height="100%"
         width="100%"
         y="0"
         x="0"
         xlink:href="#path574"
         id="use2Q" /></clipPath><clipPath
       clipPathUnits="userSpaceOnUse"
       id="clipPathH"
       clip-path="url(#clipPathl)"><use
         height="100%"
         width="100%"
         y="0"
         x="0"
         xlink:href="#path574"
         id="useG2" /></clipPath><clipPath
       clipPathUnits="userSpaceOnUse"
       id="clipPathF"
       clip-path="url(#clipPathvI)"><use
         height="100%"
         width="100%"
         y="0"
         x="0"
         xlink:href="#path574"
         id="useKE" /></clipPath><clipPath
       clipPathUnits="userSpaceOnUse"
       id="clipPathFu"
       clip-path="url(#clipPathD7)"><use
         height="100%"
         width="100%"
         y="0"
         x="0"
         xlink:href="#path574"
         id="use7M" /></clipPath><clipPath
       clipPathUnits="userSpaceOnUse"
       id="clipPathWo"
       clip-path="url(#clipPathtS)"><use
         height="100%"
         width="100%"
         y="0"
         x="0"
         xlink:href="#path574"
         id="useE7" /></clipPath><clipPath
       clipPathUnits="userSpaceOnUse"
       id="clipPathNJ"
       clip-path="url(#clipPathaR)"><use
         height="100%"
         width="100%"
         y="0"
         x="0"
         xlink:href="#path574"
         id="usetj" /></clipPath><clipPath
       clipPathUnits="userSpaceOnUse"
       id="clipPath4I"
       clip-path="url(#clipPath5A)"><use
         height="100%"
         width="100%"
         y="0"
         x="0"
         xlink:href="#path574"
         id="use5R" /></clipPath><clipPath
       clipPathUnits="userSpaceOnUse"
       id="clipPathWe"
       clip-path="url(#clipPathmf)"><use
         height="100%"
         width="100%"
         y="0"
         x="0"
         xlink:href="#path574"
         id="usefc" /></clipPath><clipPath
       clipPathUnits="userSpaceOnUse"
       id="clipPathDw"
       clip-path="url(#clipPathzK)"><use
         height="100%"
         width="100%"
         y="0"
         x="0"
         xlink:href="#path574"
         id="useMc" /></clipPath><clipPath
       clipPathUnits="userSpaceOnUse"
       id="clipPathJ"
       clip-path="url(#clipPathcL)"><use
         height="100%"
         width="100%"
         y="0"
         x="0"
         xlink:href="#path574"
         id="useKe" /></clipPath><clipPath
       clipPathUnits="userSpaceOnUse"
       id="clipPathX"
       clip-path="url(#clipPathf)"><use
         height="100%"
         width="100%"
         y="0"
         x="0"
         xlink:href="#path574"
         id="usex" /></clipPath><clipPath
       clipPathUnits="userSpaceOnUse"
       id="clipPath1N"
       clip-path="url(#clipPathd)"><use
         height="100%"
         width="100%"
         y="0"
         x="0"
         xlink:href="#path574"
         id="useA" /></clipPath><clipPath
       clipPathUnits="userSpaceOnUse"
       id="clipPathS"
       clip-path="url(#clipPathwS)"><use
         height="100%"
         width="100%"
         y="0"
         x="0"
         xlink:href="#path574"
         id="use5u" /></clipPath><clipPath
       clipPathUnits="userSpaceOnUse"
       id="clipPathHx"
       clip-path="url(#clipPath9l)"><use
         height="100%"
         width="100%"
         y="0"
         x="0"
         xlink:href="#path574"
         id="useS" /></clipPath><clipPath
       clipPathUnits="userSpaceOnUse"
       id="clipPath59"
       clip-path="url(#clipPathVk)"><use
         height="100%"
         width="100%"
         y="0"
         x="0"
         xlink:href="#path574"
         id="useE2" /></clipPath><clipPath
       clipPathUnits="userSpaceOnUse"
       id="clipPathaP"
       clip-path="url(#clipPathpA)"><use
         height="100%"
         width="100%"
         y="0"
         x="0"
         xlink:href="#path574"
         id="useRt" /></clipPath><clipPath
       clipPathUnits="userSpaceOnUse"
       id="clipPathmy"
       clip-path="url(#clipPathB3)"><use
         height="100%"
         width="100%"
         y="0"
         x="0"
         xlink:href="#path574"
         id="user" /></clipPath><clipPath
       clipPathUnits="userSpaceOnUse"
       id="clipPathp"
       clip-path="url(#clipPathFm)"><use
         height="100%"
         width="100%"
         y="0"
         x="0"
         xlink:href="#path574"
         id="usek" /></clipPath><clipPath
       clipPathUnits="userSpaceOnUse"
       id="clipPathjo"
       clip-path="url(#clipPathY2)"><use
         height="100%"
         width="100%"
         y="0"
         x="0"
         xlink:href="#path574"
         id="useUy" /></clipPath><clipPath
       clipPathUnits="userSpaceOnUse"
       id="clipPathY6"
       clip-path="url(#clipPathxH)"><use
         height="100%"
         width="100%"
         y="0"
         x="0"
         xlink:href="#path574"
         id="useMk" /></clipPath><clipPath
       clipPathUnits="userSpaceOnUse"
       id="clipPathw"
       clip-path="url(#clipPathsx)"><use
         height="100%"
         width="100%"
         y="0"
         x="0"
         xlink:href="#path574"
         id="usej" /></clipPath><clipPath
       clipPathUnits="userSpaceOnUse"
       id="clipPath9"
       clip-path="url(#clipPathLR)"><use
         height="100%"
         width="100%"
         y="0"
         x="0"
         xlink:href="#path574"
         id="useu" /></clipPath><clipPath
       clipPathUnits="userSpaceOnUse"
       id="clipPatheU"
       clip-path="url(#clipPathv9)"><use
         height="100%"
         width="100%"
         y="0"
         x="0"
         xlink:href="#path574"
         id="usec" /></clipPath><clipPath
       clipPathUnits="userSpaceOnUse"
       id="clipPath9r"
       clip-path="url(#clipPathqC)"><use
         height="100%"
         width="100%"
         y="0"
         x="0"
         xlink:href="#path574"
         id="useh" /></clipPath><clipPath
       clipPathUnits="userSpaceOnUse"
       id="clipPatht"
       clip-path="url(#clipPath3)"><use
         height="100%"
         width="100%"
         y="0"
         x="0"
         xlink:href="#path574"
         id="useND" /></clipPath><clipPath
       clipPathUnits="userSpaceOnUse"
       id="clipPathU9"
       clip-path="url(#clipPath2)"><use
         height="100%"
         width="100%"
         y="0"
         x="0"
         xlink:href="#path574"
         id="useBg" /></clipPath><clipPath
       clipPathUnits="userSpaceOnUse"
       id="clipPathv"
       clip-path="url(#clipPathmL)"><use
         height="100%"
         width="100%"
         y="0"
         x="0"
         xlink:href="#path574"
         id="useOx" /></clipPath><clipPath
       clipPathUnits="userSpaceOnUse"
       id="clipPathc"
       clip-path="url(#clipPathU4)"><use
         height="100%"
         width="100%"
         y="0"
         x="0"
         xlink:href="#path574"
         id="usei" /></clipPath><clipPath
       clipPathUnits="userSpaceOnUse"
       id="clipPathZ"
       clip-path="url(#clipPathiW)"><use
         height="100%"
         width="100%"
         y="0"
         x="0"
         xlink:href="#path574"
         id="usebi" /></clipPath></defs><g
     id="g10"
     transform="matrix(1.25,0,0,-1.25,0,292.713)"><g
       transform="matrix(4.597525,0,0,4.5975262,-2032.244,-1689.8207)"
       id="g4848"><path
         clip-path="url(#clipPathZ)"
         id="path576"
         style="fill:#e13a32;fill-opacity:1;fill-rule:nonzero;stroke:none"
         d="m 442.933,376.495 1.02,0 0,-2.119 c 0,-0.338 0.01,-0.747 -0.202,-1.029 -0.227,-0.304 -0.591,-0.364 -0.949,-0.364 -0.237,0 -0.474,0.02 -0.706,0.081 l 0,0.827 c 0.131,-0.04 0.272,-0.065 0.413,-0.065 0.117,0 0.263,0.03 0.338,0.126 0.086,0.111 0.086,0.288 0.086,0.424 l 0,2.119" /><path
         clip-path="url(#clipPathc)"
         id="path578"
         style="fill:#e13a32;fill-opacity:1;fill-rule:nonzero;stroke:none"
         d="m 448.772,373.715 -0.924,0 -0.212,-0.682 -0.863,0 1.075,3.462 1.121,0 1.084,-3.462 -1.084,0 -0.197,0.682 m -0.182,0.757 -0.282,1.004 -0.283,-1.004 0.565,0" /><path
         clip-path="url(#clipPathv)"
         id="path580"
         style="fill:#e13a32;fill-opacity:1;fill-rule:nonzero;stroke:none"
         d="m 455.725,374.295 c -0.065,-0.797 -0.646,-1.312 -1.443,-1.312 -1.039,0 -1.584,0.752 -1.584,1.736 0,0.999 0.479,1.827 1.569,1.827 0.883,0 1.388,-0.525 1.458,-1.388 l -0.989,-0.05 c 0.01,0.292 -0.101,0.661 -0.459,0.661 -0.469,0 -0.489,-0.722 -0.489,-1.05 0,-0.348 0.02,-0.939 0.499,-0.939 0.328,0 0.454,0.288 0.47,0.576 l 0.968,-0.061" /><path
         clip-path="url(#clipPathU9)"
         id="path582"
         style="fill:#e13a32;fill-opacity:1;fill-rule:nonzero;stroke:none"
         d="m 460.65,373.033 -0.595,1.308 -0.363,-0.505 0,-0.803 -1,0 0,3.462 1,0 0,-1.428 0.958,1.428 0.954,0 -0.873,-1.267 1.085,-2.195 -1.166,0" /><path
         clip-path="url(#clipPatht)"
         id="path584"
         style="fill:#e13a32;fill-opacity:1;fill-rule:nonzero;stroke:none"
         d="m 471.762,374.754 c 0,-0.983 -0.605,-1.771 -1.655,-1.771 -1.05,0 -1.655,0.788 -1.655,1.771 0,1.035 0.6,1.792 1.655,1.792 1.055,0 1.655,-0.757 1.655,-1.792 m -2.175,-0.005 c 0,-0.333 0.036,-0.974 0.52,-0.974 0.485,0 0.52,0.641 0.52,0.974 0,0.338 -0.05,1.015 -0.52,1.015 -0.469,0 -0.52,-0.677 -0.52,-1.015" /><path
         clip-path="url(#clipPath9r)"
         id="path586"
         style="fill:#e13a32;fill-opacity:1;fill-rule:nonzero;stroke:none"
         d="m 475.683,374.33 0,-1.297 -1.034,0 0,3.462 2.502,0 0,-0.822 -1.468,0 0,-0.565 1.125,0 0,-0.778 -1.125,0" /><path
         clip-path="url(#clipPatheU)"
         id="path588"
         style="fill:#e13a32;fill-opacity:1;fill-rule:nonzero;stroke:none"
         d="m 444.028,368.282 -0.923,0 -0.212,-0.681 -0.863,0 1.075,3.462 1.12,0 1.085,-3.462 -1.085,0 -0.197,0.681 m -0.181,0.757 -0.283,1.004 -0.283,-1.004 0.566,0" /><path
         clip-path="url(#clipPath9)"
         id="path590"
         style="fill:#e13a32;fill-opacity:1;fill-rule:nonzero;stroke:none"
         d="m 450.563,367.601 -2.427,0 0,3.462 1.07,0 0,-2.614 1.357,0 0,-0.848" /><path
         clip-path="url(#clipPathw)"
         id="path592"
         style="fill:#e13a32;fill-opacity:1;fill-rule:nonzero;stroke:none"
         d="m 455.811,367.601 -2.427,0 0,3.462 1.07,0 0,-2.614 1.357,0 0,-0.848" /><path
         clip-path="url(#clipPathY6)"
         id="path594"
         style="fill:#e13a32;fill-opacity:1;fill-rule:nonzero;stroke:none"
         d="m 465.636,367.601 -0.52,0 -0.141,0.363 c -0.217,-0.293 -0.58,-0.414 -0.938,-0.414 -1.01,0 -1.55,0.777 -1.55,1.726 0,0.454 0.116,0.929 0.404,1.287 0.328,0.414 0.747,0.55 1.256,0.55 0.803,0 1.338,-0.409 1.489,-1.201 l -1.029,-0.106 c -0.041,0.277 -0.157,0.54 -0.48,0.54 -0.489,0 -0.519,-0.656 -0.519,-1.009 0,-0.202 0.009,-0.455 0.091,-0.636 0.085,-0.202 0.252,-0.333 0.474,-0.333 0.272,0 0.474,0.167 0.474,0.439 l -0.57,0 0,0.732 1.559,0 0,-1.938" /><path
         clip-path="url(#clipPathjo)"
         id="path596"
         style="fill:#e13a32;fill-opacity:1;fill-rule:nonzero;stroke:none"
         d="m 470.369,368.282 -0.923,0 -0.212,-0.681 -0.863,0 1.075,3.462 1.12,0 1.085,-3.462 -1.085,0 -0.197,0.681 m -0.181,0.757 -0.283,1.004 -0.282,-1.004 0.565,0" /><path
         clip-path="url(#clipPathp)"
         id="path598"
         style="fill:#e13a32;fill-opacity:1;fill-rule:nonzero;stroke:none"
         d="m 478.226,367.601 -0.989,0 0,2.473 -0.01,0 -0.63,-2.473 -0.677,0 -0.651,2.473 -0.01,0 0,-2.473 -0.797,0 0,3.462 1.388,0 0.494,-1.837 0.01,0 0.475,1.837 1.397,0 0,-3.462" /><path
         clip-path="url(#clipPathmy)"
         id="path600"
         style="fill:#e13a32;fill-opacity:1;fill-rule:nonzero;stroke:none"
         d="m 483.903,367.601 -2.598,0 0,3.462 2.598,0 0,-0.798 -1.559,0 0,-0.505 1.262,0 0,-0.771 -1.262,0 0,-0.561 1.559,0 0,-0.827" /><path
         clip-path="url(#clipPathaP)"
         id="path602"
         style="fill:#e13a32;fill-opacity:1;fill-rule:nonzero;stroke:none"
         d="m 487.638,368.782 c 0.09,-0.308 0.323,-0.419 0.63,-0.419 0.137,0 0.409,0.02 0.409,0.212 0,0.212 -0.268,0.252 -0.424,0.282 -0.651,0.126 -1.423,0.303 -1.423,1.126 0,0.338 0.167,0.671 0.444,0.868 0.283,0.197 0.651,0.262 0.994,0.262 0.601,0 1.181,-0.247 1.393,-0.848 l -0.878,-0.267 c -0.101,0.257 -0.293,0.348 -0.56,0.348 -0.142,0 -0.343,-0.041 -0.343,-0.222 0,-0.182 0.252,-0.217 0.383,-0.248 0.328,-0.065 0.676,-0.12 0.979,-0.277 0.339,-0.182 0.515,-0.505 0.515,-0.883 0,-0.832 -0.828,-1.166 -1.544,-1.166 -0.727,0 -1.373,0.303 -1.56,1.055 l 0.985,0.177" /><path
         clip-path="url(#clipPath59)"
         id="path604"
         style="fill:#e13a32;fill-opacity:1;fill-rule:nonzero;stroke:none"
         d="m 442.933,376.495 1.02,0 0,-2.119 c 0,-0.338 0.01,-0.747 -0.202,-1.029 -0.227,-0.304 -0.591,-0.364 -0.949,-0.364 -0.237,0 -0.474,0.02 -0.706,0.081 l 0,0.827 c 0.131,-0.04 0.272,-0.065 0.413,-0.065 0.117,0 0.263,0.03 0.338,0.126 0.086,0.111 0.086,0.288 0.086,0.424 l 0,2.119" /><path
         clip-path="url(#clipPathHx)"
         id="path606"
         style="fill:#e13a32;fill-opacity:1;fill-rule:nonzero;stroke:none"
         d="m 448.772,373.715 -0.924,0 -0.212,-0.682 -0.863,0 1.075,3.462 1.121,0 1.084,-3.462 -1.084,0 -0.197,0.682 m -0.182,0.757 -0.282,1.004 -0.283,-1.004 0.565,0" /><path
         clip-path="url(#clipPathS)"
         id="path608"
         style="fill:#e13a32;fill-opacity:1;fill-rule:nonzero;stroke:none"
         d="m 455.725,374.295 c -0.065,-0.797 -0.646,-1.312 -1.443,-1.312 -1.039,0 -1.584,0.752 -1.584,1.736 0,0.999 0.479,1.827 1.569,1.827 0.883,0 1.388,-0.525 1.458,-1.388 l -0.989,-0.05 c 0.01,0.292 -0.101,0.661 -0.459,0.661 -0.469,0 -0.489,-0.722 -0.489,-1.05 0,-0.348 0.02,-0.939 0.499,-0.939 0.328,0 0.454,0.288 0.47,0.576 l 0.968,-0.061" /><path
         clip-path="url(#clipPath1N)"
         id="path610"
         style="fill:#e13a32;fill-opacity:1;fill-rule:nonzero;stroke:none"
         d="m 460.65,373.033 -0.595,1.308 -0.363,-0.505 0,-0.803 -1,0 0,3.462 1,0 0,-1.428 0.958,1.428 0.954,0 -0.873,-1.267 1.085,-2.195 -1.166,0" /><path
         clip-path="url(#clipPathX)"
         id="path612"
         style="fill:#e13a32;fill-opacity:1;fill-rule:nonzero;stroke:none"
         d="m 471.762,374.754 c 0,-0.983 -0.605,-1.771 -1.655,-1.771 -1.05,0 -1.655,0.788 -1.655,1.771 0,1.035 0.6,1.792 1.655,1.792 1.055,0 1.655,-0.757 1.655,-1.792 m -2.175,-0.005 c 0,-0.333 0.036,-0.974 0.52,-0.974 0.485,0 0.52,0.641 0.52,0.974 0,0.338 -0.05,1.015 -0.52,1.015 -0.469,0 -0.52,-0.677 -0.52,-1.015" /><path
         clip-path="url(#clipPathJ)"
         id="path614"
         style="fill:#e13a32;fill-opacity:1;fill-rule:nonzero;stroke:none"
         d="m 475.683,374.33 0,-1.297 -1.034,0 0,3.462 2.502,0 0,-0.822 -1.468,0 0,-0.565 1.125,0 0,-0.778 -1.125,0" /><path
         clip-path="url(#clipPathDw)"
         id="path616"
         style="fill:#e13a32;fill-opacity:1;fill-rule:nonzero;stroke:none"
         d="m 444.028,368.282 -0.923,0 -0.212,-0.681 -0.863,0 1.075,3.462 1.12,0 1.085,-3.462 -1.085,0 -0.197,0.681 m -0.181,0.757 -0.283,1.004 -0.283,-1.004 0.566,0" /><path
         clip-path="url(#clipPathWe)"
         id="path618"
         style="fill:#e13a32;fill-opacity:1;fill-rule:nonzero;stroke:none"
         d="m 450.563,367.601 -2.427,0 0,3.462 1.07,0 0,-2.614 1.357,0 0,-0.848" /><path
         clip-path="url(#clipPath4I)"
         id="path620"
         style="fill:#e13a32;fill-opacity:1;fill-rule:nonzero;stroke:none"
         d="m 455.811,367.601 -2.427,0 0,3.462 1.07,0 0,-2.614 1.357,0 0,-0.848" /><path
         clip-path="url(#clipPathNJ)"
         id="path622"
         style="fill:#e13a32;fill-opacity:1;fill-rule:nonzero;stroke:none"
         d="m 465.636,367.601 -0.52,0 -0.141,0.363 c -0.217,-0.293 -0.58,-0.414 -0.938,-0.414 -1.01,0 -1.55,0.777 -1.55,1.726 0,0.454 0.116,0.929 0.404,1.287 0.328,0.414 0.747,0.55 1.256,0.55 0.803,0 1.338,-0.409 1.489,-1.201 l -1.029,-0.106 c -0.041,0.277 -0.157,0.54 -0.48,0.54 -0.489,0 -0.519,-0.656 -0.519,-1.009 0,-0.202 0.009,-0.455 0.091,-0.636 0.085,-0.202 0.252,-0.333 0.474,-0.333 0.272,0 0.474,0.167 0.474,0.439 l -0.57,0 0,0.732 1.559,0 0,-1.938" /><path
         clip-path="url(#clipPathWo)"
         id="path624"
         style="fill:#e13a32;fill-opacity:1;fill-rule:nonzero;stroke:none"
         d="m 470.369,368.282 -0.923,0 -0.212,-0.681 -0.863,0 1.075,3.462 1.12,0 1.085,-3.462 -1.085,0 -0.197,0.681 m -0.181,0.757 -0.283,1.004 -0.282,-1.004 0.565,0" /><path
         clip-path="url(#clipPathFu)"
         id="path626"
         style="fill:#e13a32;fill-opacity:1;fill-rule:nonzero;stroke:none"
         d="m 478.226,367.601 -0.989,0 0,2.473 -0.01,0 -0.63,-2.473 -0.677,0 -0.651,2.473 -0.01,0 0,-2.473 -0.797,0 0,3.462 1.388,0 0.494,-1.837 0.01,0 0.475,1.837 1.397,0 0,-3.462" /><path
         clip-path="url(#clipPathF)"
         id="path628"
         style="fill:#e13a32;fill-opacity:1;fill-rule:nonzero;stroke:none"
         d="m 483.903,367.601 -2.598,0 0,3.462 2.598,0 0,-0.798 -1.559,0 0,-0.505 1.262,0 0,-0.771 -1.262,0 0,-0.561 1.559,0 0,-0.827" /><path
         clip-path="url(#clipPathH)"
         id="path630"
         style="fill:#e13a32;fill-opacity:1;fill-rule:nonzero;stroke:none"
         d="m 487.638,368.782 c 0.09,-0.308 0.323,-0.419 0.63,-0.419 0.137,0 0.409,0.02 0.409,0.212 0,0.212 -0.268,0.252 -0.424,0.282 -0.651,0.126 -1.423,0.303 -1.423,1.126 0,0.338 0.167,0.671 0.444,0.868 0.283,0.197 0.651,0.262 0.994,0.262 0.601,0 1.181,-0.247 1.393,-0.848 l -0.878,-0.267 c -0.101,0.257 -0.293,0.348 -0.56,0.348 -0.142,0 -0.343,-0.041 -0.343,-0.222 0,-0.182 0.252,-0.217 0.383,-0.248 0.328,-0.065 0.676,-0.12 0.979,-0.277 0.339,-0.182 0.515,-0.505 0.515,-0.883 0,-0.832 -0.828,-1.166 -1.544,-1.166 -0.727,0 -1.373,0.303 -1.56,1.055 l 0.985,0.177" /><path
         clip-path="url(#clipPathjW)"
         id="path632"
         style="fill:#e9f2ee;fill-opacity:1;fill-rule:nonzero;stroke:none"
         d="m 451.366,418.484 10.661,0 0,-22.167 c 0,-3.537 0.106,-7.812 -2.111,-10.768 -2.375,-3.166 -6.175,-3.8 -9.923,-3.8 -2.48,0 -4.961,0.211 -7.389,0.845 l 0,8.656 c 1.372,-0.423 2.85,-0.686 4.328,-0.686 1.214,0 2.745,0.316 3.536,1.319 0.898,1.161 0.898,3.008 0.898,4.434 l 0,22.167" /><path
         clip-path="url(#clipPath5N)"
         id="path634"
         style="fill:#e13a32;fill-opacity:1;fill-rule:nonzero;stroke:none"
         d="m 451.366,418.484 10.661,0 0,-22.167 c 0,-3.537 0.106,-7.812 -2.111,-10.768 -2.375,-3.166 -6.175,-3.8 -9.923,-3.8 -2.48,0 -4.961,0.211 -7.389,0.845 l 0,8.656 c 1.372,-0.423 2.85,-0.686 4.328,-0.686 1.214,0 2.745,0.316 3.536,1.319 0.898,1.161 0.898,3.008 0.898,4.434 l 0,22.167" /><path
         clip-path="url(#clipPathn)"
         id="path636"
         style="fill:#000000;fill-opacity:1;fill-rule:nonzero;stroke:none"
         d="m 489.417,382.277 -4.922,0 -1.337,3.44 c -2.055,-2.771 -5.494,-3.918 -8.887,-3.918 -9.555,0 -14.667,7.358 -14.667,16.34 0,4.3 1.099,8.791 3.822,12.183 3.106,3.918 7.071,5.208 11.896,5.208 7.597,0 12.661,-3.87 14.095,-11.371 l -9.747,-1.004 c -0.382,2.628 -1.481,5.112 -4.539,5.112 -4.634,0 -4.921,-6.211 -4.921,-9.555 0,-1.911 0.096,-4.3 0.86,-6.02 0.813,-1.911 2.389,-3.153 4.491,-3.153 2.58,0 4.491,1.577 4.491,4.157 l -5.398,0 0,6.927 14.763,0 0,-18.346" /><path
         clip-path="url(#clipPathm)"
         id="path638"
         style="fill:#000000;fill-opacity:1;fill-rule:nonzero;stroke:none"
         d="m 491.71,418.465 0,-0.268 -0.761,0 0,-1.991 -0.311,0 0,1.991 -0.762,0 0,0.268 1.834,0" /><path
         clip-path="url(#clipPathAW)"
         id="path640"
         style="fill:#000000;fill-opacity:1;fill-rule:nonzero;stroke:none"
         d="m 492.061,418.465 0.441,0 0.65,-1.91 0.643,1.91 0.437,0 0,-2.259 -0.294,0 0,1.333 c 0,0.047 0.002,0.123 0.005,0.229 0.003,0.107 0.005,0.221 0.005,0.343 l -0.648,-1.905 -0.303,0 -0.652,1.905 0,-0.069 c 0,-0.055 0.002,-0.14 0.005,-0.253 0.004,-0.113 0.005,-0.196 0.005,-0.25 l 0,-1.333 -0.294,0 0,2.259" /></g></g><metadata
     id="metadata4885"><rdf:RDF><cc:Work
         rdf:about=""><dc:title></dc:title></cc:Work></rdf:RDF></metadata></svg>